<svg xmlns="http://www.w3.org/2000/svg" viewBox="0 0 1100 750" font-family="Microsoft YaHei, PingFang SC, sans-serif">
  <defs>
    <marker id="fk" markerWidth="8" markerHeight="6" refX="8" refY="3" orient="auto">
      <polygon points="0 0, 8 3, 0 6" fill="#6366f1"/>
    </marker>
    <filter id="s" x="-2%" y="-2%" width="104%" height="108%">
      <feDropShadow dx="0" dy="2" stdDeviation="3" flood-opacity="0.1"/>
    </filter>
  </defs>

  <rect width="1100" height="750" rx="12" fill="#fafafa"/>

  <!-- Title -->
  <rect x="0" y="0" width="1100" height="56" rx="12" fill="#111827"/>
  <rect x="0" y="30" width="1100" height="26" fill="#111827"/>
  <text x="550" y="36" text-anchor="middle" fill="white" font-size="20" font-weight="bold">小游智能旅行助手 — 数据模型 ER 图 (15张表)</text>

  <!-- ============ Core Entities ============ -->

  <!-- User (center-left) -->
  <rect x="40" y="80" width="200" height="210" rx="8" fill="white" stroke="#3b82f6" stroke-width="2" filter="url(#s)"/>
  <rect x="40" y="80" width="200" height="32" rx="8" fill="#3b82f6"/>
  <rect x="40" y="104" width="200" height="8" fill="#3b82f6"/>
  <text x="140" y="102" text-anchor="middle" fill="white" font-size="14" font-weight="bold">👤 users 用户表</text>
  <text x="52" y="130" fill="#1e40af" font-size="11">🔑 id (PK)</text>
  <text x="52" y="148" fill="#334155" font-size="11">username / email / phone</text>
  <text x="52" y="166" fill="#334155" font-size="11">password_hash</text>
  <text x="52" y="184" fill="#334155" font-size="11">avatar / membership_level</text>
  <text x="52" y="202" fill="#334155" font-size="11">points / invite_code</text>
  <text x="52" y="220" fill="#334155" font-size="11">preferences (JSON)</text>
  <text x="52" y="238" fill="#64748b" font-size="10">created_at / last_login</text>
  <text x="52" y="256" fill="#64748b" font-size="10">invited_by → users.id</text>
  <text x="52" y="276" fill="#94a3b8" font-size="10">models.py:75</text>

  <!-- Destination (center-right) -->
  <rect x="440" y="80" width="200" height="210" rx="8" fill="white" stroke="#10b981" stroke-width="2" filter="url(#s)"/>
  <rect x="440" y="80" width="200" height="32" rx="8" fill="#10b981"/>
  <rect x="440" y="104" width="200" height="8" fill="#10b981"/>
  <text x="540" y="102" text-anchor="middle" fill="white" font-size="14" font-weight="bold">🏞 destinations 景点表</text>
  <text x="452" y="130" fill="#065f46" font-size="11">🔑 id (PK)</text>
  <text x="452" y="148" fill="#334155" font-size="11">name / city / province</text>
  <text x="452" y="166" fill="#334155" font-size="11">description</text>
  <text x="452" y="184" fill="#334155" font-size="11">cover_image / rating</text>
  <text x="452" y="202" fill="#334155" font-size="11">ticket_price / open_time</text>
  <text x="452" y="220" fill="#334155" font-size="11">lng / lat (坐标)</text>
  <text x="452" y="238" fill="#64748b" font-size="10">tags (JSON) / category</text>
  <text x="452" y="256" fill="#64748b" font-size="10">created_at</text>
  <text x="452" y="276" fill="#94a3b8" font-size="10">models.py:15</text>

  <!-- Arrows: User → many tables -->
  <line x1="240" y1="150" x2="290" y2="150" stroke="#6366f1" stroke-width="2" marker-end="url(#fk)"/>
  <text x="265" y="142" fill="#6366f1" font-size="9">1:N</text>

  <!-- Trip -->
  <rect x="290" y="80" width="140" height="120" rx="8" fill="white" stroke="#f59e0b" stroke-width="2" filter="url(#s)"/>
  <rect x="290" y="80" width="140" height="28" rx="8" fill="#f59e0b"/>
  <rect x="290" y="100" width="140" height="8" fill="#f59e0b"/>
  <text x="360" y="100" text-anchor="middle" fill="white" font-size="12" font-weight="bold">🧳 trips</text>
  <text x="302" y="122" fill="#92400e" font-size="10">🔑 id · 🔗 user_id</text>
  <text x="302" y="138" fill="#334155" font-size="10">title / description</text>
  <text x="302" y="154" fill="#334155" font-size="10">start_date / end_date</text>
  <text x="302" y="170" fill="#334155" font-size="10">status</text>
  <text x="302" y="188" fill="#94a3b8" font-size="9">models.py:128</text>

  <!-- TripItem (from Trip) -->
  <line x1="360" y1="200" x2="360" y2="230" stroke="#6366f1" stroke-width="1.5" marker-end="url(#fk)"/>
  <rect x="290" y="234" width="140" height="110" rx="8" fill="white" stroke="#f59e0b" stroke-width="1.5" filter="url(#s)"/>
  <rect x="290" y="234" width="140" height="28" rx="8" fill="#fbbf24"/>
  <rect x="290" y="254" width="140" height="8" fill="#fbbf24"/>
  <text x="360" y="254" text-anchor="middle" fill="white" font-size="12" font-weight="bold">📋 trip_items</text>
  <text x="302" y="276" fill="#92400e" font-size="10">🔑 id · 🔗 trip_id</text>
  <text x="302" y="292" fill="#334155" font-size="10">destination_id · day_num</text>
  <text x="302" y="308" fill="#334155" font-size="10">title / location</text>
  <text x="302" y="324" fill="#334155" font-size="10">start_time / end_time</text>
  <text x="302" y="340" fill="#94a3b8" font-size="9">models.py:167</text>

  <!-- Arrow TripItem → Destination -->
  <path d="M 430,290 L 440,290 L 440,180" fill="none" stroke="#10b981" stroke-width="1.5" stroke-dasharray="5,3" marker-end="url(#fk)"/>
  <text x="434" y="270" fill="#10b981" font-size="9">FK</text>

  <!-- ============ User-related tables (left column) ============ -->

  <!-- Favorite -->
  <line x1="140" y1="290" x2="140" y2="320" stroke="#6366f1" stroke-width="1.5" marker-end="url(#fk)"/>
  <rect x="40" y="324" width="160" height="90" rx="8" fill="white" stroke="#ec4899" stroke-width="1.5" filter="url(#s)"/>
  <rect x="40" y="324" width="160" height="26" rx="8" fill="#ec4899"/>
  <rect x="40" y="342" width="160" height="8" fill="#ec4899"/>
  <text x="120" y="343" text-anchor="middle" fill="white" font-size="11" font-weight="bold">❤️ favorites</text>
  <text x="52" y="366" fill="#334155" font-size="10">🔑 id · 🔗 user_id</text>
  <text x="52" y="382" fill="#334155" font-size="10">🔗 destination_id</text>
  <text x="52" y="398" fill="#64748b" font-size="9">created_at</text>
  <text x="52" y="410" fill="#94a3b8" font-size="9">models.py:234</text>

  <!-- Arrow Favorite → Destination -->
  <path d="M 200,370 L 440,370 L 440,290" fill="none" stroke="#10b981" stroke-width="1" stroke-dasharray="5,3" marker-end="url(#fk)"/>

  <!-- Footprint -->
  <line x1="100" y1="414" x2="100" y2="440" stroke="#6366f1" stroke-width="1.5" marker-end="url(#fk)"/>
  <rect x="40" y="444" width="160" height="90" rx="8" fill="white" stroke="#06b6d4" stroke-width="1.5" filter="url(#s)"/>
  <rect x="40" y="444" width="160" height="26" rx="8" fill="#06b6d4"/>
  <rect x="40" y="462" width="160" height="8" fill="#06b6d4"/>
  <text x="120" y="463" text-anchor="middle" fill="white" font-size="11" font-weight="bold">👣 user_footprint</text>
  <text x="52" y="486" fill="#334155" font-size="10">🔑 id · 🔗 user_id</text>
  <text x="52" y="502" fill="#334155" font-size="10">🔗 destination_id</text>
  <text x="52" y="518" fill="#64748b" font-size="9">view_time / duration</text>
  <text x="52" y="530" fill="#94a3b8" font-size="9">models.py:256</text>

  <!-- Notification -->
  <line x1="180" y1="444" x2="210" y2="444" stroke="#6366f1" stroke-width="1.5" marker-end="url(#fk)"/>
  <rect x="214" y="380" width="160" height="90" rx="8" fill="white" stroke="#8b5cf6" stroke-width="1.5" filter="url(#s)"/>
  <rect x="214" y="380" width="160" height="26" rx="8" fill="#8b5cf6"/>
  <rect x="214" y="398" width="160" height="8" fill="#8b5cf6"/>
  <text x="294" y="399" text-anchor="middle" fill="white" font-size="11" font-weight="bold">🔔 notification</text>
  <text x="226" y="422" fill="#334155" font-size="10">🔑 id · 🔗 user_id</text>
  <text x="226" y="438" fill="#334155" font-size="10">type / title / content</text>
  <text x="226" y="454" fill="#64748b" font-size="9">is_read / created_at</text>
  <text x="226" y="466" fill="#94a3b8" font-size="9">models.py:312</text>

  <!-- ============ Destination-related (right column) ============ -->

  <!-- Comment -->
  <line x1="540" y1="290" x2="540" y2="320" stroke="#6366f1" stroke-width="1.5" marker-end="url(#fk)"/>
  <rect x="470" y="324" width="160" height="90" rx="8" fill="white" stroke="#f97316" stroke-width="1.5" filter="url(#s)"/>
  <rect x="470" y="324" width="160" height="26" rx="8" fill="#f97316"/>
  <rect x="470" y="342" width="160" height="8" fill="#f97316"/>
  <text x="550" y="343" text-anchor="middle" fill="white" font-size="11" font-weight="bold">💬 destination_comment</text>
  <text x="482" y="366" fill="#334155" font-size="10">🔑 id · 🔗 dest_id</text>
  <text x="482" y="382" fill="#334155" font-size="10">🔗 user_id / content</text>
  <text x="482" y="398" fill="#64748b" font-size="9">rating / created_at</text>
  <text x="482" y="410" fill="#94a3b8" font-size="9">models.py:281</text>

  <!-- Travel Note -->
  <rect x="470" y="444" width="160" height="100" rx="8" fill="white" stroke="#84cc16" stroke-width="1.5" filter="url(#s)"/>
  <rect x="470" y="444" width="160" height="26" rx="8" fill="#84cc16"/>
  <rect x="470" y="462" width="160" height="8" fill="#84cc16"/>
  <text x="550" y="463" text-anchor="middle" fill="white" font-size="11" font-weight="bold">📝 travel_note</text>
  <text x="482" y="486" fill="#334155" font-size="10">🔑 id · 🔗 user_id</text>
  <text x="482" y="502" fill="#334155" font-size="10">title / content</text>
  <text x="482" y="518" fill="#334155" font-size="10">cover_image</text>
  <text x="482" y="534" fill="#64748b" font-size="9">likes / comments_count</text>

  <!-- ============ Commerce (bottom) ============ -->

  <!-- Order -->
  <rect x="700" y="80" width="170" height="120" rx="8" fill="white" stroke="#ef4444" stroke-width="2" filter="url(#s)"/>
  <rect x="700" y="80" width="170" height="28" rx="8" fill="#ef4444"/>
  <rect x="700" y="100" width="170" height="8" fill="#ef4444"/>
  <text x="785" y="100" text-anchor="middle" fill="white" font-size="12" font-weight="bold">🛒 order 订单</text>
  <text x="712" y="122" fill="#991b1b" font-size="10">🔑 id · 🔗 user_id</text>
  <text x="712" y="138" fill="#334155" font-size="10">order_no / total_amount</text>
  <text x="712" y="154" fill="#334155" font-size="10">status / payment_method</text>
  <text x="712" y="170" fill="#64748b" font-size="9">payment_time</text>
  <text x="712" y="188" fill="#94a3b8" font-size="9">models.py:466</text>

  <!-- Arrow User → Order -->
  <path d="M 240,200 L 700,200 L 700,140" fill="none" stroke="#6366f1" stroke-width="1.5" marker-end="url(#fk)"/>
  <text x="470" y="195" fill="#6366f1" font-size="9">1:N</text>

  <!-- OrderItem -->
  <line x1="785" y1="200" x2="785" y2="220" stroke="#6366f1" stroke-width="1.5" marker-end="url(#fk)"/>
  <rect x="700" y="224" width="170" height="90" rx="8" fill="white" stroke="#ef4444" stroke-width="1.5" filter="url(#s)"/>
  <rect x="700" y="224" width="170" height="26" rx="8" fill="#fca5a5"/>
  <rect x="700" y="242" width="170" height="8" fill="#fca5a5"/>
  <text x="785" y="243" text-anchor="middle" fill="white" font-size="11" font-weight="bold">📦 order_item</text>
  <text x="712" y="266" fill="#334155" font-size="10">🔑 id · 🔗 order_id</text>
  <text x="712" y="282" fill="#334155" font-size="10">product_name / qty</text>
  <text x="712" y="298" fill="#64748b" font-size="9">unit_price</text>
  <text x="712" y="310" fill="#94a3b8" font-size="9">models.py:491</text>

  <!-- Coupon -->
  <rect x="700" y="344" width="170" height="100" rx="8" fill="white" stroke="#a855f7" stroke-width="1.5" filter="url(#s)"/>
  <rect x="700" y="344" width="170" height="26" rx="8" fill="#a855f7"/>
  <rect x="700" y="362" width="170" height="8" fill="#a855f7"/>
  <text x="785" y="363" text-anchor="middle" fill="white" font-size="11" font-weight="bold">🎫 coupon</text>
  <text x="712" y="386" fill="#334155" font-size="10">🔑 id / code / name</text>
  <text x="712" y="402" fill="#334155" font-size="10">discount / min_amount</text>
  <text x="712" y="418" fill="#64748b" font-size="9">valid_from / valid_until</text>
  <text x="712" y="434" fill="#94a3b8" font-size="9">status</text>

  <!-- Support Ticket -->
  <rect x="890" y="80" width="170" height="120" rx="8" fill="white" stroke="#14b8a6" stroke-width="1.5" filter="url(#s)"/>
  <rect x="890" y="80" width="170" height="28" rx="8" fill="#14b8a6"/>
  <rect x="890" y="100" width="170" height="8" fill="#14b8a6"/>
  <text x="975" y="100" text-anchor="middle" fill="white" font-size="12" font-weight="bold">🎫 support_ticket</text>
  <text x="902" y="122" fill="#134e4a" font-size="10">🔑 id · 🔗 user_id</text>
  <text x="902" y="138" fill="#334155" font-size="10">subject / description</text>
  <text x="902" y="154" fill="#334155" font-size="10">status / priority</text>
  <text x="902" y="170" fill="#64748b" font-size="9">created_at</text>
  <text x="902" y="188" fill="#94a3b8" font-size="9">app.py:2752</text>

  <!-- TicketReply -->
  <line x1="975" y1="200" x2="975" y2="220" stroke="#6366f1" stroke-width="1.5" marker-end="url(#fk)"/>
  <rect x="890" y="224" width="170" height="90" rx="8" fill="white" stroke="#14b8a6" stroke-width="1.5" filter="url(#s)"/>
  <rect x="890" y="224" width="170" height="26" rx="8" fill="#99f6e4"/>
  <rect x="890" y="242" width="170" height="8" fill="#99f6e4"/>
  <text x="975" y="243" text-anchor="middle" fill="white" font-size="11" font-weight="bold">💬 ticket_reply</text>
  <text x="902" y="266" fill="#334155" font-size="10">🔑 id · 🔗 ticket_id</text>
  <text x="902" y="282" fill="#334155" font-size="10">🔗 user_id / content</text>
  <text x="902" y="298" fill="#64748b" font-size="9">is_admin / created_at</text>

  <!-- ============ User likes (bridge table) ============ -->
  <rect x="290" y="500" width="160" height="70" rx="8" fill="white" stroke="#e879f9" stroke-width="1.5" filter="url(#s)"/>
  <rect x="290" y="500" width="160" height="26" rx="8" fill="#e879f9"/>
  <rect x="290" y="518" width="160" height="8" fill="#e879f9"/>
  <text x="370" y="519" text-anchor="middle" fill="white" font-size="11" font-weight="bold">👍 user_likes</text>
  <text x="302" y="542" fill="#334155" font-size="10">🔑 id · 🔗 user_id</text>
  <text x="302" y="558" fill="#334155" font-size="10">🔗 destination_id</text>

  <!-- Legend -->
  <rect x="40" y="660" width="1020" height="70" rx="8" fill="white" stroke="#e2e8f0" stroke-width="1"/>
  <text x="60" y="685" fill="#334155" font-size="13" font-weight="bold">图例</text>
  <rect x="120" y="672" width="16" height="16" rx="3" fill="#3b82f6"/>
  <text x="142" y="685" fill="#334155" font-size="11">用户相关</text>
  <rect x="220" y="672" width="16" height="16" rx="3" fill="#10b981"/>
  <text x="242" y="685" fill="#334155" font-size="11">景点相关</text>
  <rect x="320" y="672" width="16" height="16" rx="3" fill="#f59e0b"/>
  <text x="342" y="685" fill="#334155" font-size="11">行程相关</text>
  <rect x="420" y="672" width="16" height="16" rx="3" fill="#ef4444"/>
  <text x="442" y="685" fill="#334155" font-size="11">订单相关</text>
  <rect x="520" y="672" width="16" height="16" rx="3" fill="#a855f7"/>
  <text x="542" y="685" fill="#334155" font-size="11">优惠券</text>
  <rect x="610" y="672" width="16" height="16" rx="3" fill="#14b8a6"/>
  <text x="632" y="685" fill="#334155" font-size="11">客服工单</text>
  <line x1="720" y1="680" x2="770" y2="680" stroke="#6366f1" stroke-width="2" marker-end="url(#fk)"/>
  <text x="780" y="685" fill="#334155" font-size="11">外键 FK 关系 (1:N)</text>
  <line x1="900" y1="680" x2="950" y2="680" stroke="#10b981" stroke-width="1.5" stroke-dasharray="5,3" marker-end="url(#fk)"/>
  <text x="960" y="685" fill="#334155" font-size="11">可选关联</text>
  <text x="60" y="720" fill="#64748b" font-size="11">共 15 张表 · 用户系统、景点管理、行程规划、订单系统、优惠券、客服工单、游记</text>
</svg>